<svg width="19" height="13" viewBox="0 0 19 13" fill="none" xmlns="http://www.w3.org/2000/svg">
<path d="M13.4643 6.5C14.7457 6.5 15.7764 5.46 15.7764 4.17857C15.7764 2.89714 14.7457 1.85714 13.4643 1.85714C12.8486 1.85714 12.2581 2.10172 11.8228 2.53707C11.3874 2.97243 11.1429 3.56289 11.1429 4.17857C11.1429 4.79425 11.3874 5.38472 11.8228 5.82007C12.2581 6.25542 12.8486 6.5 13.4643 6.5ZM6.5 5.57143C8.04143 5.57143 9.27643 4.32714 9.27643 2.78571C9.27643 1.24429 8.04143 0 6.5 0C4.95857 0 3.71429 1.24429 3.71429 2.78571C3.71429 4.32714 4.95857 5.57143 6.5 5.57143ZM13.4643 8.35714C11.765 8.35714 8.35714 9.21143 8.35714 10.9107V13H18.5714V10.9107C18.5714 9.21143 15.1636 8.35714 13.4643 8.35714ZM6.5 7.42857C4.33643 7.42857 0 8.515 0 10.6786V13H6.5V10.9107C6.5 10.1214 6.80643 8.73786 8.70071 7.68857C7.89286 7.52143 7.11286 7.42857 6.5 7.42857Z" fill="#FBE165"/>
</svg>
