<svg width="12" height="12" viewBox="0 0 12 12" fill="none" xmlns="http://www.w3.org/2000/svg">
<path d="M11.5215 6.18359L12.1951 5.0195C12.276 4.87944 12.298 4.71297 12.2563 4.55669C12.2145 4.4004 12.1124 4.2671 11.9724 4.18609L10.8071 3.51253V2.1703C10.8071 2.00848 10.7428 1.8533 10.6284 1.73888C10.5139 1.62447 10.3588 1.56019 10.1969 1.56019H8.85532L8.18237 0.395491C8.1011 0.255725 7.96805 0.153587 7.81203 0.111181C7.73465 0.0902027 7.65387 0.0847935 7.57438 0.0952664C7.49489 0.105739 7.41827 0.131886 7.34896 0.172192L6.18366 0.845751L5.01835 0.171581C4.87822 0.0906797 4.71169 0.0687557 4.5554 0.110632C4.39911 0.152509 4.26585 0.254756 4.18494 0.394881L3.51138 1.56019H2.16976C2.00795 1.56019 1.85276 1.62447 1.73835 1.73888C1.62393 1.8533 1.55965 2.00848 1.55965 2.1703V3.51192L0.394343 4.18548C0.32481 4.22548 0.263865 4.27882 0.21501 4.34244C0.166155 4.40606 0.130353 4.47871 0.109659 4.55621C0.0889663 4.63371 0.0837905 4.71453 0.0944294 4.79404C0.105068 4.87355 0.131312 4.95017 0.171653 5.0195L0.845212 6.18359L0.171653 7.34767C0.091112 7.48786 0.0692599 7.6542 0.110861 7.81043C0.152462 7.96667 0.254142 8.10012 0.393732 8.18169L1.55904 8.85525V10.1969C1.55904 10.3587 1.62332 10.5139 1.73774 10.6283C1.85215 10.7427 2.00734 10.807 2.16915 10.807H3.51138L4.18494 11.9723C4.23896 12.0646 4.31608 12.1413 4.40872 12.1948C4.50136 12.2483 4.60633 12.2767 4.7133 12.2773C4.81946 12.2773 4.925 12.2493 5.01896 12.195L6.18305 11.5214L7.34835 12.195C7.48845 12.2758 7.65486 12.2977 7.8111 12.2559C7.96734 12.2142 8.10064 12.1122 8.18176 11.9723L8.85471 10.807H10.1963C10.3581 10.807 10.5133 10.7427 10.6277 10.6283C10.7422 10.5139 10.8064 10.3587 10.8064 10.1969V8.85525L11.9718 8.18169C12.0412 8.14158 12.102 8.08818 12.1508 8.02454C12.1995 7.96091 12.2353 7.88829 12.2559 7.81083C12.2766 7.73338 12.2818 7.6526 12.2713 7.57313C12.2607 7.49366 12.2346 7.41705 12.1944 7.34767L11.5215 6.18359ZM4.65778 3.12694C4.90057 3.12703 5.13339 3.22355 5.30502 3.39529C5.47665 3.56703 5.57302 3.79992 5.57294 4.04272C5.57286 4.28551 5.47633 4.51833 5.30459 4.68996C5.13285 4.86159 4.89996 4.95796 4.65717 4.95788C4.41437 4.9578 4.18155 4.86127 4.00992 4.68953C3.8383 4.51779 3.74192 4.2849 3.742 4.04211C3.74209 3.79931 3.83861 3.56649 4.01035 3.39486C4.1821 3.22324 4.41498 3.12686 4.65778 3.12694ZM4.84081 8.98398L3.86464 8.25246L7.52528 3.3716L8.50146 4.10312L4.84081 8.98398ZM7.70832 9.22802C7.5881 9.22798 7.46906 9.20426 7.35801 9.15822C7.24695 9.11218 7.14605 9.04471 7.06107 8.95967C6.97609 8.87464 6.90869 8.77369 6.86272 8.66261C6.81675 8.55152 6.79311 8.43247 6.79315 8.31225C6.79319 8.19203 6.81691 8.073 6.86296 7.96194C6.909 7.85089 6.97647 7.74999 7.0615 7.66501C7.14654 7.58003 7.24748 7.51263 7.35857 7.46666C7.46965 7.42069 7.58871 7.39705 7.70893 7.39709C7.95172 7.39717 8.18454 7.4937 8.35617 7.66544C8.5278 7.83718 8.62417 8.07007 8.62409 8.31286C8.62401 8.55566 8.52748 8.78848 8.35574 8.9601C8.184 9.13173 7.95111 9.2281 7.70832 9.22802Z" fill="#27C24C"/>
</svg>
