<svg width="12" height="13" viewBox="0 0 12 13" fill="none" xmlns="http://www.w3.org/2000/svg">
<path fill-rule="evenodd" clip-rule="evenodd" d="M1.625 0C1.19402 0 0.780698 0.171205 0.475951 0.475951C0.171205 0.780698 0 1.19402 0 1.625V13L2.84375 11.375L5.6875 13L8.53125 11.375L11.375 13V1.625C11.375 1.19402 11.2038 0.780698 10.899 0.475951C10.5943 0.171205 10.181 0 9.75 0H1.625ZM5.44944 3.01194C5.59744 2.8587 5.67934 2.65346 5.67748 2.44042C5.67563 2.22739 5.59018 2.0236 5.43954 1.87296C5.2889 1.72232 5.08511 1.63687 4.87208 1.63501C4.65904 1.63316 4.4538 1.71506 4.30056 1.86306L1.86306 4.30056C1.71074 4.45293 1.62517 4.65955 1.62517 4.875C1.62517 5.09045 1.71074 5.29707 1.86306 5.44944L4.30056 7.88694C4.4538 8.03494 4.65904 8.11684 4.87208 8.11498C5.08511 8.11313 5.2889 8.02768 5.43954 7.87704C5.59018 7.7264 5.67563 7.52261 5.67748 7.30958C5.67934 7.09654 5.59744 6.8913 5.44944 6.73806L4.39887 5.6875H5.6875C6.33397 5.6875 6.95395 5.94431 7.41107 6.40143C7.86819 6.85855 8.125 7.47853 8.125 8.125V8.9375C8.125 9.15299 8.2106 9.35965 8.36298 9.51202C8.51535 9.6644 8.72201 9.75 8.9375 9.75C9.15299 9.75 9.35965 9.6644 9.51202 9.51202C9.6644 9.35965 9.75 9.15299 9.75 8.9375V8.125C9.75 7.04756 9.32199 6.01425 8.56012 5.25238C7.79825 4.49051 6.76494 4.0625 5.6875 4.0625H4.39887L5.44944 3.01194Z" fill="#27C24B"/>
</svg>
