<svg width="13" height="13" viewBox="0 0 13 13" fill="none" xmlns="http://www.w3.org/2000/svg">
<path d="M0.753623 12.4976C0.753623 12.7755 0.97814 13 1.25604 13H5.74638V7.09662H0.753623V12.4976ZM6.81401 13H11.3043C11.5822 13 11.8068 12.7755 11.8068 12.4976V7.09662H6.81401V13ZM12.058 3.3285H9.74058C9.95411 2.99251 10.0797 2.59372 10.0797 2.16667C10.0797 0.97186 9.10785 0 7.91304 0C7.26304 0 6.67742 0.288889 6.28019 0.744203C5.88297 0.288889 5.29734 0 4.64734 0C3.45254 0 2.48068 0.97186 2.48068 2.16667C2.48068 2.59372 2.60471 2.99251 2.81981 3.3285H0.502415C0.224517 3.3285 0 3.55302 0 3.83092V6.02899H5.74638V3.3285H6.81401V6.02899H12.5604V3.83092C12.5604 3.55302 12.3359 3.3285 12.058 3.3285ZM5.74638 3.2657H4.64734C4.0413 3.2657 3.54831 2.77271 3.54831 2.16667C3.54831 1.56063 4.0413 1.06763 4.64734 1.06763C5.25338 1.06763 5.74638 1.56063 5.74638 2.16667V3.2657ZM7.91304 3.2657H6.81401V2.16667C6.81401 1.56063 7.307 1.06763 7.91304 1.06763C8.51908 1.06763 9.01208 1.56063 9.01208 2.16667C9.01208 2.77271 8.51908 3.2657 7.91304 3.2657Z" fill="#F05050"/>
</svg>
