<svg width="13" height="13" viewBox="0 0 13 13" fill="none" xmlns="http://www.w3.org/2000/svg">
<path d="M6.15888 4.73004C5.72445 4.73004 5.31763 4.89859 5.00961 5.20661C4.70304 5.51463 4.53304 5.92145 4.53304 6.35588C4.53304 6.79031 4.70304 7.19713 5.00961 7.50516C5.31763 7.81173 5.72445 7.98172 6.15888 7.98172C6.59331 7.98172 7.00013 7.81173 7.30816 7.50516C7.61473 7.19713 7.78472 6.79031 7.78472 6.35588C7.78472 5.92145 7.61473 5.51463 7.30816 5.20661C7.15771 5.055 6.97864 4.93481 6.78134 4.85299C6.58405 4.77118 6.37246 4.72939 6.15888 4.73004ZM12.1494 8.15172L11.1991 7.33952C11.2442 7.06347 11.2674 6.78159 11.2674 6.50118C11.2674 6.22076 11.2442 5.93744 11.1991 5.66283L12.1494 4.85064C12.2211 4.78919 12.2725 4.70734 12.2966 4.61599C12.3208 4.52463 12.3165 4.42809 12.2845 4.3392L12.2714 4.30143C12.0099 3.57015 11.618 2.8923 11.1149 2.30073L11.0887 2.27022C11.0276 2.19837 10.9462 2.14673 10.8551 2.12209C10.7641 2.09745 10.6677 2.10097 10.5787 2.13219L9.39894 2.55209C8.96305 2.19466 8.47777 1.91279 7.95181 1.71665L7.7237 0.483102C7.70649 0.390176 7.66141 0.304685 7.59445 0.237988C7.5275 0.171292 7.44183 0.126546 7.34884 0.109697L7.30961 0.102432C6.55408 -0.0341441 5.75787 -0.0341441 5.00234 0.102432L4.96311 0.109697C4.87012 0.126546 4.78445 0.171292 4.7175 0.237988C4.65054 0.304685 4.60546 0.390176 4.58825 0.483102L4.35869 1.72246C3.83771 1.92017 3.35238 2.20136 2.92173 2.55499L1.73323 2.13219C1.64426 2.10072 1.54782 2.09707 1.45673 2.12173C1.36563 2.14638 1.2842 2.19817 1.22325 2.27022L1.19709 2.30073C0.694801 2.89293 0.303058 3.57061 0.0405531 4.30143L0.0274767 4.3392C-0.0379056 4.52082 0.0158532 4.72423 0.1626 4.85064L1.12445 5.67155C1.0794 5.9447 1.05761 6.22367 1.05761 6.49972C1.05761 6.77869 1.0794 7.05765 1.12445 7.3279L0.165506 8.14881C0.0937245 8.21026 0.0423496 8.29211 0.0182127 8.38346C-0.00592425 8.47482 -0.00167954 8.57136 0.0303825 8.66024L0.043459 8.69802C0.306441 9.42885 0.694376 10.1045 1.2 10.6987L1.22615 10.7292C1.28725 10.8011 1.36869 10.8527 1.45973 10.8774C1.55077 10.902 1.64714 10.8985 1.73613 10.8673L2.92464 10.4445C3.35761 10.8004 3.83999 11.0823 4.3616 11.277L4.59116 12.5163C4.60837 12.6093 4.65345 12.6948 4.7204 12.7615C4.78736 12.8282 4.87302 12.8729 4.96602 12.8898L5.00525 12.897C5.76821 13.0343 6.54956 13.0343 7.31252 12.897L7.35174 12.8898C7.44474 12.8729 7.5304 12.8282 7.59736 12.7615C7.66432 12.6948 7.70939 12.6093 7.7266 12.5163L7.95471 11.2828C8.48068 11.0852 8.96596 10.8048 9.40184 10.4474L10.5816 10.8673C10.6706 10.8987 10.767 10.9024 10.8581 10.8777C10.9492 10.8531 11.0307 10.8013 11.0916 10.7292L11.1178 10.6987C11.6234 10.1016 12.0113 9.42885 12.2743 8.69802L12.2874 8.66024C12.3499 8.48008 12.2961 8.27812 12.1494 8.15172ZM6.15888 8.91015C4.74808 8.91015 3.60461 7.76669 3.60461 6.35588C3.60461 4.94508 4.74808 3.80162 6.15888 3.80162C7.56969 3.80162 8.71315 4.94508 8.71315 6.35588C8.71315 7.76669 7.56969 8.91015 6.15888 8.91015Z" fill="#FBE165"/>
</svg>
